# Blender v2.79 (sub 7) OBJ File: 'Wood_bridge.blend'
# www.blender.org
mtllib Wood_bridge.mtl
o Wood_bridge_Cube.001
v 4.189525 -0.056000 -2.356668
v 4.189525 0.056000 -2.356668
v 4.189525 -0.056000 -15.635739
v 4.189525 0.056000 -15.635739
v 6.337665 -0.056000 -2.356668
v 6.337665 0.056000 -2.356668
v 6.337665 -0.056000 -15.635739
v 6.337665 0.056000 -15.635739
v 4.007587 -0.056000 0.180449
v 4.007587 0.056000 0.180449
v 5.663644 0.056000 1.501498
v 5.663644 -0.056000 1.501498
v 2.347097 -0.056000 2.260231
v 2.347097 0.056000 2.260231
v 3.125642 0.056000 4.182650
v 3.125642 -0.056000 4.182650
v -0.736405 -0.056000 3.569262
v -0.736405 0.056000 3.569262
v -0.736405 0.056000 5.717403
v -0.736405 -0.056000 5.717403
v -13.957353 -0.056000 3.569262
v -13.957353 0.056000 3.569262
v -13.957353 0.056000 5.717403
v -13.957353 -0.056000 5.717403
vt -6.322069 0.197026
vt -8.962928 0.156966
vt -6.321757 0.150933
vt -8.963238 0.203059
vt -9.846992 0.151008
vt 10.846992 0.241450
vt 8.206221 0.201379
vt 10.847303 0.195358
vt -5.275236 0.204079
vt 0.985268 -2.918840
vt 0.014732 3.080677
vt 0.014733 -2.918840
vt 0.014732 3.080677
vt 0.985268 -2.918840
vt 0.985268 3.080677
vt 0.785832 0.003167
vt 0.274795 0.769864
vt 0.214168 0.051666
vt 0.770104 0.000720
vt 0.295606 0.741114
vt 0.229896 0.095094
vt 0.419394 0.010760
vt 0.883750 0.735328
vt 0.419394 0.989240
vt 8.205910 0.247471
vt 6.594400 0.190523
vt 0.144677 0.000651
vt 0.630256 0.806505
vt 0.151212 1.000510
vt -5.274926 0.157984
vt -4.179931 0.211451
vt 0.214168 -0.003080
vt 0.725205 0.763617
vt 0.214168 0.996769
vt 6.594090 0.236617
vt 5.075010 0.180292
vt -7.535127 2.580087
vt -8.840923 1.765848
vt -7.535127 1.765848
vt 5.074700 0.226380
vt 3.364900 0.168770
vt 0.935046 0.005500
vt 0.454755 0.814493
vt 0.436048 0.008761
vt -4.179621 0.165358
vt -2.801312 0.220742
vt -2.801001 0.174652
vt -0.160361 0.214825
vt 0.012598 -2.504422
vt 0.987402 3.495095
vt 0.012602 3.495095
vt 3.364590 0.214860
vt 0.723945 0.174699
vt -0.160050 0.168735
vt -9.847303 0.197102
vt 0.985268 3.080677
vt 0.014732 -2.918840
vt 0.785832 1.003016
vt 0.770104 1.000573
vt 0.948055 0.103117
vt 0.643696 0.000651
vt 0.785832 0.045419
vt -8.840923 2.580087
vt 0.935046 1.005358
vt 0.987401 -2.504422
vt 0.723634 0.220789
vn -1.0000 0.0000 0.0000
vn 0.0000 0.0000 -1.0000
vn 1.0000 0.0000 0.0000
vn -0.9974 0.0000 -0.0715
vn 0.0000 -1.0000 0.0000
vn 0.0000 1.0000 0.0000
vn 0.9851 0.0000 0.1721
vn -0.7815 0.0000 -0.6239
vn 0.7262 0.0000 0.6875
vn 0.3693 0.0000 0.9293
vn -0.3908 0.0000 -0.9205
vn 0.0000 0.0000 1.0000
usemtl Wood_bridge
s off
f 2/1/1 3/2/1 1/3/1
f 4/4/2 7/5/2 3/2/2
f 8/6/3 5/7/3 7/8/3
f 1/3/4 10/9/4 2/1/4
f 7/10/5 1/11/5 3/12/5
f 4/13/6 6/14/6 8/15/6
f 12/16/5 13/17/5 9/18/5
f 5/19/5 9/20/5 1/21/5
f 6/22/6 10/23/6 11/24/6
f 6/25/7 12/26/7 5/7/7
f 15/27/6 18/28/6 19/29/6
f 9/30/8 14/31/8 10/9/8
f 11/32/6 14/33/6 15/34/6
f 11/35/9 16/36/9 12/26/9
f 20/37/5 21/38/5 17/39/5
f 15/40/10 20/41/10 16/36/10
f 16/42/5 17/43/5 13/44/5
f 13/45/11 18/46/11 14/31/11
f 17/47/2 22/48/2 18/46/2
f 19/49/6 22/50/6 23/51/6
f 19/52/12 24/53/12 20/41/12
f 24/53/1 22/48/1 21/54/1
f 2/1/1 4/4/1 3/2/1
f 4/4/2 8/55/2 7/5/2
f 8/6/3 6/25/3 5/7/3
f 1/3/4 9/30/4 10/9/4
f 7/10/5 5/56/5 1/11/5
f 4/13/6 2/57/6 6/14/6
f 12/16/5 16/58/5 13/17/5
f 5/19/5 12/59/5 9/20/5
f 6/22/6 2/60/6 10/23/6
f 6/25/7 11/35/7 12/26/7
f 15/27/6 14/61/6 18/28/6
f 9/30/8 13/45/8 14/31/8
f 11/32/6 10/62/6 14/33/6
f 11/35/9 15/40/9 16/36/9
f 20/37/5 24/63/5 21/38/5
f 15/40/10 19/52/10 20/41/10
f 16/42/5 20/64/5 17/43/5
f 13/45/11 17/47/11 18/46/11
f 17/47/2 21/54/2 22/48/2
f 19/49/6 18/65/6 22/50/6
f 19/52/12 23/66/12 24/53/12
f 24/53/1 23/66/1 22/48/1
